<svg xmlns="http://www.w3.org/2000/svg" viewBox="0 0 780 460" width="780" height="460">
  <defs>
    <filter id="blur-soft">
      <feGaussianBlur stdDeviation="1.5"/>
    </filter>
    <clipPath id="scene-clip">
      <rect width="780" height="460"/>
    </clipPath>
  </defs>

  <!-- Background -->
  <rect width="780" height="460" fill="#f0f2f7"/>

  <!-- ── ECG PAPER (rotated, behind) ── -->
  <g transform="rotate(2, 480, 130)" opacity="0.88">
    <rect x="330" y="28" width="288" height="208" rx="2" fill="#fff8f0" stroke="#e8d8c0" stroke-width="1"/>
    <!-- Grid lines thin -->
    <g stroke="rgba(255,80,80,0.13)" stroke-width="0.5">
      <line x1="340" y1="28" x2="340" y2="236"/> <line x1="350" y1="28" x2="350" y2="236"/>
      <line x1="360" y1="28" x2="360" y2="236"/> <line x1="370" y1="28" x2="370" y2="236"/>
      <line x1="380" y1="28" x2="380" y2="236"/> <line x1="390" y1="28" x2="390" y2="236"/>
      <line x1="400" y1="28" x2="400" y2="236"/> <line x1="410" y1="28" x2="410" y2="236"/>
      <line x1="420" y1="28" x2="420" y2="236"/> <line x1="430" y1="28" x2="430" y2="236"/>
      <line x1="440" y1="28" x2="440" y2="236"/> <line x1="450" y1="28" x2="450" y2="236"/>
      <line x1="460" y1="28" x2="460" y2="236"/> <line x1="470" y1="28" x2="470" y2="236"/>
      <line x1="480" y1="28" x2="480" y2="236"/> <line x1="490" y1="28" x2="490" y2="236"/>
      <line x1="500" y1="28" x2="500" y2="236"/> <line x1="510" y1="28" x2="510" y2="236"/>
      <line x1="520" y1="28" x2="520" y2="236"/> <line x1="530" y1="28" x2="530" y2="236"/>
      <line x1="540" y1="28" x2="540" y2="236"/> <line x1="550" y1="28" x2="550" y2="236"/>
      <line x1="560" y1="28" x2="560" y2="236"/> <line x1="570" y1="28" x2="570" y2="236"/>
      <line x1="580" y1="28" x2="580" y2="236"/> <line x1="590" y1="28" x2="590" y2="236"/>
      <line x1="600" y1="28" x2="600" y2="236"/> <line x1="610" y1="28" x2="610" y2="236"/>
      <line x1="330" y1="38" x2="618" y2="38"/> <line x1="330" y1="48" x2="618" y2="48"/>
      <line x1="330" y1="58" x2="618" y2="58"/> <line x1="330" y1="68" x2="618" y2="68"/>
      <line x1="330" y1="78" x2="618" y2="78"/> <line x1="330" y1="88" x2="618" y2="88"/>
      <line x1="330" y1="98" x2="618" y2="98"/> <line x1="330" y1="108" x2="618" y2="108"/>
      <line x1="330" y1="118" x2="618" y2="118"/> <line x1="330" y1="128" x2="618" y2="128"/>
      <line x1="330" y1="138" x2="618" y2="138"/> <line x1="330" y1="148" x2="618" y2="148"/>
      <line x1="330" y1="158" x2="618" y2="158"/> <line x1="330" y1="168" x2="618" y2="168"/>
      <line x1="330" y1="178" x2="618" y2="178"/> <line x1="330" y1="188" x2="618" y2="188"/>
      <line x1="330" y1="198" x2="618" y2="198"/> <line x1="330" y1="208" x2="618" y2="208"/>
      <line x1="330" y1="218" x2="618" y2="218"/> <line x1="330" y1="228" x2="618" y2="228"/>
    </g>
    <!-- Bold grid every 50px -->
    <g stroke="rgba(255,80,80,0.22)" stroke-width="0.8">
      <line x1="330" y1="28" x2="330" y2="236"/> <line x1="380" y1="28" x2="380" y2="236"/>
      <line x1="430" y1="28" x2="430" y2="236"/> <line x1="480" y1="28" x2="480" y2="236"/>
      <line x1="530" y1="28" x2="530" y2="236"/> <line x1="580" y1="28" x2="580" y2="236"/>
      <line x1="330" y1="28" x2="618" y2="28"/> <line x1="330" y1="78" x2="618" y2="78"/>
      <line x1="330" y1="128" x2="618" y2="128"/> <line x1="330" y1="178" x2="618" y2="178"/>
      <line x1="330" y1="228" x2="618" y2="228"/>
    </g>
    <!-- ECG wave row 1 -->
    <polyline fill="none" stroke="#ef4444" stroke-width="1.5" stroke-linecap="round" stroke-linejoin="round"
      points="330,75 345,75 350,75 355,72 358,60 361,90 364,72 370,75 390,75 395,75 400,72 403,58 406,92 409,72 415,75 435,75 440,72 443,60 446,90 449,72 455,75 475,75 480,72 483,60 486,90 489,72 495,75 515,75 520,72 523,60 526,90 529,72 535,75 555,75 560,72 563,58 566,92 569,72 575,75 595,75 600,72 603,60 606,90 609,72 615,75"/>
    <!-- ECG wave row 2 -->
    <polyline fill="none" stroke="#ef4444" stroke-width="1.5" stroke-linecap="round" stroke-linejoin="round"
      points="330,145 350,145 355,142 360,132 363,155 366,140 375,145 395,145 400,142 405,130 408,158 411,140 420,145 440,145 445,142 450,132 453,155 456,140 465,145 485,145 490,142 495,130 498,160 501,140 510,145 530,145 535,142 540,130 543,158 546,140 555,145 575,145 580,142 585,132 588,155 591,140 600,145 615,145"/>
    <!-- ECG wave row 3 -->
    <polyline fill="none" stroke="#ef4444" stroke-width="1.5" stroke-linecap="round" stroke-linejoin="round"
      points="330,205 355,205 360,202 365,194 368,212 371,202 380,205 405,205 410,202 415,194 418,214 421,202 430,205 455,205 460,202 465,192 468,215 471,202 480,205 505,205 510,202 515,193 518,214 521,202 530,205 555,205 560,202 565,194 568,212 571,202 580,205 610,205 615,205"/>
    <!-- Data text -->
    <text x="338" y="44" font-family="Courier New" font-size="8" fill="#1a3a6b" opacity="0.75">HR:   448</text>
    <text x="338" y="54" font-family="Courier New" font-size="8" fill="#1a3a6b" opacity="0.75">QTcF: 427</text>
    <text x="338" y="64" font-family="Courier New" font-size="8" fill="#1a3a6b" opacity="0.75">P-AXIS: 52</text>
    <text x="338" y="74" font-family="Courier New" font-size="8" fill="#1a3a6b" opacity="0.75">12 Lead Standard</text>
  </g>

  <!-- ── PIXEL DATA GRID (bottom left) ── -->
  <g transform="translate(18, 108)" opacity="0.92">
    <!-- Teal & orange pixel mosaic -->
    <rect x="0"   y="0"   width="9" height="9" fill="rgba(20,184,166,0.85)"/>
    <rect x="11"  y="0"   width="9" height="9" fill="rgba(251,146,60,0.7)"/>
    <rect x="22"  y="0"   width="9" height="9" fill="rgba(20,184,166,0.6)"/>
    <rect x="33"  y="0"   width="9" height="9" fill="rgba(20,184,166,0.9)"/>
    <rect x="44"  y="0"   width="9" height="9" fill="rgba(251,146,60,0.5)"/>
    <rect x="55"  y="0"   width="9" height="9" fill="rgba(20,184,166,0.75)"/>
    <rect x="66"  y="0"   width="9" height="9" fill="rgba(20,184,166,0.4)"/>
    <rect x="77"  y="0"   width="9" height="9" fill="rgba(251,146,60,0.8)"/>
    <rect x="88"  y="0"   width="9" height="9" fill="rgba(20,184,166,0.65)"/>
    <rect x="99"  y="0"   width="9" height="9" fill="rgba(20,184,166,0.9)"/>

    <rect x="0"   y="11"  width="9" height="9" fill="rgba(251,146,60,0.6)"/>
    <rect x="11"  y="11"  width="9" height="9" fill="rgba(20,184,166,0.9)"/>
    <rect x="22"  y="11"  width="9" height="9" fill="rgba(251,146,60,0.75)"/>
    <rect x="33"  y="11"  width="9" height="9" fill="rgba(20,184,166,0.5)"/>
    <rect x="44"  y="11"  width="9" height="9" fill="rgba(20,184,166,0.85)"/>
    <rect x="55"  y="11"  width="9" height="9" fill="rgba(251,146,60,0.6)"/>
    <rect x="66"  y="11"  width="9" height="9" fill="rgba(20,184,166,0.9)"/>
    <rect x="77"  y="11"  width="9" height="9" fill="rgba(20,184,166,0.45)"/>
    <rect x="88"  y="11"  width="9" height="9" fill="rgba(251,146,60,0.7)"/>
    <rect x="99"  y="11"  width="9" height="9" fill="rgba(20,184,166,0.8)"/>

    <rect x="0"   y="22"  width="9" height="9" fill="rgba(20,184,166,0.7)"/>
    <rect x="11"  y="22"  width="9" height="9" fill="rgba(20,184,166,0.4)"/>
    <rect x="22"  y="22"  width="9" height="9" fill="rgba(20,184,166,0.85)"/>
    <rect x="33"  y="22"  width="9" height="9" fill="rgba(251,146,60,0.65)"/>
    <rect x="44"  y="22"  width="9" height="9" fill="rgba(20,184,166,0.5)"/>
    <rect x="55"  y="22"  width="9" height="9" fill="rgba(20,184,166,0.9)"/>
    <rect x="66"  y="22"  width="9" height="9" fill="rgba(251,146,60,0.8)"/>
    <rect x="77"  y="22"  width="9" height="9" fill="rgba(20,184,166,0.6)"/>
    <rect x="88"  y="22"  width="9" height="9" fill="rgba(20,184,166,0.75)"/>
    <rect x="99"  y="22"  width="9" height="9" fill="rgba(251,146,60,0.5)"/>

    <rect x="0"   y="33"  width="9" height="9" fill="rgba(251,146,60,0.85)"/>
    <rect x="11"  y="33"  width="9" height="9" fill="rgba(20,184,166,0.6)"/>
    <rect x="22"  y="33"  width="9" height="9" fill="rgba(251,146,60,0.4)"/>
    <rect x="33"  y="33"  width="9" height="9" fill="rgba(20,184,166,0.9)"/>
    <rect x="44"  y="33"  width="9" height="9" fill="rgba(20,184,166,0.7)"/>
    <rect x="55"  y="33"  width="9" height="9" fill="rgba(251,146,60,0.6)"/>
    <rect x="66"  y="33"  width="9" height="9" fill="rgba(20,184,166,0.85)"/>
    <rect x="77"  y="33"  width="9" height="9" fill="rgba(20,184,166,0.5)"/>
    <rect x="88"  y="33"  width="9" height="9" fill="rgba(251,146,60,0.75)"/>
    <rect x="99"  y="33"  width="9" height="9" fill="rgba(20,184,166,0.65)"/>

    <rect x="0"   y="44"  width="9" height="9" fill="rgba(20,184,166,0.55)"/>
    <rect x="11"  y="44"  width="9" height="9" fill="rgba(251,146,60,0.9)"/>
    <rect x="22"  y="44"  width="9" height="9" fill="rgba(20,184,166,0.7)"/>
    <rect x="33"  y="44"  width="9" height="9" fill="rgba(251,146,60,0.5)"/>
    <rect x="44"  y="44"  width="9" height="9" fill="rgba(20,184,166,0.85)"/>
    <rect x="55"  y="44"  width="9" height="9" fill="rgba(20,184,166,0.4)"/>
    <rect x="66"  y="44"  width="9" height="9" fill="rgba(251,146,60,0.7)"/>
    <rect x="77"  y="44"  width="9" height="9" fill="rgba(20,184,166,0.9)"/>
    <rect x="88"  y="44"  width="9" height="9" fill="rgba(20,184,166,0.6)"/>
    <rect x="99"  y="44"  width="9" height="9" fill="rgba(251,146,60,0.8)"/>

    <rect x="0"   y="55"  width="9" height="9" fill="rgba(20,184,166,0.8)"/>
    <rect x="11"  y="55"  width="9" height="9" fill="rgba(20,184,166,0.5)"/>
    <rect x="22"  y="55"  width="9" height="9" fill="rgba(251,146,60,0.65)"/>
    <rect x="33"  y="55"  width="9" height="9" fill="rgba(20,184,166,0.75)"/>
    <rect x="44"  y="55"  width="9" height="9" fill="rgba(251,146,60,0.9)"/>
    <rect x="55"  y="55"  width="9" height="9" fill="rgba(20,184,166,0.55)"/>
    <rect x="66"  y="55"  width="9" height="9" fill="rgba(20,184,166,0.85)"/>
    <rect x="77"  y="55"  width="9" height="9" fill="rgba(251,146,60,0.4)"/>
    <rect x="88"  y="55"  width="9" height="9" fill="rgba(20,184,166,0.7)"/>
    <rect x="99"  y="55"  width="9" height="9" fill="rgba(20,184,166,0.6)"/>

    <rect x="0"   y="66"  width="9" height="9" fill="rgba(251,146,60,0.7)"/>
    <rect x="11"  y="66"  width="9" height="9" fill="rgba(20,184,166,0.85)"/>
    <rect x="22"  y="66"  width="9" height="9" fill="rgba(20,184,166,0.5)"/>
    <rect x="33"  y="66"  width="9" height="9" fill="rgba(251,146,60,0.8)"/>
    <rect x="44"  y="66"  width="9" height="9" fill="rgba(20,184,166,0.65)"/>
    <rect x="55"  y="66"  width="9" height="9" fill="rgba(20,184,166,0.9)"/>
    <rect x="66"  y="66"  width="9" height="9" fill="rgba(251,146,60,0.5)"/>
    <rect x="77"  y="66"  width="9" height="9" fill="rgba(20,184,166,0.75)"/>
    <rect x="88"  y="66"  width="9" height="9" fill="rgba(20,184,166,0.4)"/>
    <rect x="99"  y="66"  width="9" height="9" fill="rgba(251,146,60,0.85)"/>

    <rect x="0"   y="77"  width="9" height="9" fill="rgba(20,184,166,0.6)"/>
    <rect x="11"  y="77"  width="9" height="9" fill="rgba(251,146,60,0.55)"/>
    <rect x="22"  y="77"  width="9" height="9" fill="rgba(20,184,166,0.9)"/>
    <rect x="33"  y="77"  width="9" height="9" fill="rgba(20,184,166,0.7)"/>
    <rect x="44"  y="77"  width="9" height="9" fill="rgba(251,146,60,0.6)"/>
    <rect x="55"  y="77"  width="9" height="9" fill="rgba(20,184,166,0.8)"/>
    <rect x="66"  y="77"  width="9" height="9" fill="rgba(20,184,166,0.45)"/>
    <rect x="77"  y="77"  width="9" height="9" fill="rgba(251,146,60,0.9)"/>
    <rect x="88"  y="77"  width="9" height="9" fill="rgba(20,184,166,0.65)"/>
    <rect x="99"  y="77"  width="9" height="9" fill="rgba(20,184,166,0.85)"/>
  </g>

  <!-- ── NETWORK LINES & NODES ── -->
  <g opacity="0.9">
    <!-- Lines -->
    <line x1="268" y1="82"  x2="345" y2="148" stroke="#14b8a6" stroke-width="1.2" opacity="0.5"/>
    <line x1="345" y1="148" x2="428" y2="96"  stroke="#14b8a6" stroke-width="1.2" opacity="0.5"/>
    <line x1="428" y1="96"  x2="508" y2="168" stroke="#14b8a6" stroke-width="1.2" opacity="0.5"/>
    <line x1="508" y1="168" x2="588" y2="108" stroke="#14b8a6" stroke-width="1.2" opacity="0.5"/>
    <line x1="588" y1="108" x2="618" y2="208" stroke="#14b8a6" stroke-width="1.2" opacity="0.5"/>
    <line x1="618" y1="208" x2="468" y2="258" stroke="#14b8a6" stroke-width="1.2" opacity="0.5"/>
    <line x1="468" y1="258" x2="358" y2="298" stroke="#14b8a6" stroke-width="1.2" opacity="0.5"/>
    <line x1="358" y1="298" x2="295" y2="208" stroke="#14b8a6" stroke-width="1.2" opacity="0.5"/>
    <line x1="295" y1="208" x2="268" y2="82"  stroke="#14b8a6" stroke-width="1.2" opacity="0.4"/>
    <line x1="428" y1="96"  x2="468" y2="258" stroke="#14b8a6" stroke-width="1"   opacity="0.3"/>
    <line x1="508" y1="168" x2="358" y2="298" stroke="#14b8a6" stroke-width="1"   opacity="0.3"/>
    <line x1="588" y1="108" x2="690" y2="148" stroke="#14b8a6" stroke-width="1.2" opacity="0.5"/>
    <line x1="618" y1="208" x2="548" y2="328" stroke="#14b8a6" stroke-width="1.2" opacity="0.5"/>
    <line x1="690" y1="148" x2="618" y2="208" stroke="#14b8a6" stroke-width="1"   opacity="0.4"/>

    <!-- Nodes — dark navy -->
    <circle cx="268" cy="82"  r="10" fill="#0d4f8c" stroke="#fff" stroke-width="2"/>
    <circle cx="345" cy="148" r="7"  fill="#14b8a6" stroke="#fff" stroke-width="1.5"/>
    <circle cx="428" cy="96"  r="12" fill="#0d4f8c" stroke="#fff" stroke-width="2"/>
    <circle cx="508" cy="168" r="8"  fill="#14b8a6" stroke="#fff" stroke-width="1.5"/>
    <circle cx="588" cy="108" r="7"  fill="#0d4f8c" stroke="#fff" stroke-width="1.5"/>
    <circle cx="618" cy="208" r="11" fill="#14b8a6" stroke="#fff" stroke-width="2"/>
    <circle cx="468" cy="258" r="7"  fill="#0d4f8c" stroke="#fff" stroke-width="1.5"/>
    <circle cx="358" cy="298" r="9"  fill="#14b8a6" stroke="#fff" stroke-width="2"/>
    <circle cx="295" cy="208" r="6"  fill="#0d4f8c" stroke="#fff" stroke-width="1.5"/>
    <circle cx="690" cy="148" r="8"  fill="#14b8a6" stroke="#fff" stroke-width="1.5"/>
    <circle cx="548" cy="328" r="7"  fill="#0d4f8c" stroke="#fff" stroke-width="1.5"/>

    <!-- Traveling signal dots on edges -->
    <circle cx="306" cy="115" r="3" fill="#14b8a6" opacity="0.9"/>
    <circle cx="468" cy="132" r="3" fill="#0d4f8c" opacity="0.9"/>
    <circle cx="548" cy="138" r="3" fill="#14b8a6" opacity="0.9"/>
    <circle cx="603" cy="158" r="3" fill="#0d4f8c" opacity="0.9"/>
    <circle cx="543" cy="233" r="3" fill="#14b8a6" opacity="0.9"/>
  </g>

  <!-- ── PURPLE BLOCKS ── -->
  <rect x="148" y="262" width="72" height="50" rx="2" fill="#a855f7" opacity="0.82"/>
  <rect x="582" y="218" width="58" height="42" rx="2" fill="#a855f7" opacity="0.75"/>
  <rect x="288" y="52"  width="38" height="28" rx="2" fill="#14b8a6" opacity="0.7"/>

  <!-- ── DOCTOR FIGURE (teal duotone, left) ── -->
  <g transform="translate(58, 50)">
    <!-- Legs -->
    <rect x="62" y="268" width="28" height="50" rx="8" fill="#0f766e"/>
    <rect x="96" y="268" width="28" height="50" rx="8" fill="#0f766e"/>
    <!-- Shoes -->
    <ellipse cx="76"  cy="316" rx="20" ry="8" fill="#042f2e"/>
    <ellipse cx="110" cy="316" rx="20" ry="8" fill="#042f2e"/>
    <!-- Body -->
    <path d="M 52 82 Q 42 100 40 168 L 40 278 L 148 278 L 148 168 Q 146 100 136 82 Q 114 72 94 72 Q 74 72 52 82 Z" fill="#0d9488"/>
    <!-- Right arm -->
    <path d="M 136 95 Q 162 118 164 158" stroke="#0d9488" stroke-width="22" stroke-linecap="round" fill="none"/>
    <!-- Left arm + tablet -->
    <path d="M 52 95 Q 26 118 20 175" stroke="#0d9488" stroke-width="22" stroke-linecap="round" fill="none"/>
    <rect x="6"  y="162" width="46" height="66" rx="6" fill="#1e293b"/>
    <rect x="10" y="166" width="38" height="54" rx="4" fill="#0f172a"/>
    <rect x="10" y="166" width="38" height="54" rx="4" fill="#14b8a6" opacity="0.12"/>
    <line x1="14" y1="178" x2="44" y2="178" stroke="#14b8a6" stroke-width="1.5" opacity="0.8"/>
    <line x1="14" y1="186" x2="44" y2="186" stroke="#14b8a6" stroke-width="1"   opacity="0.5"/>
    <line x1="14" y1="193" x2="36" y2="193" stroke="#14b8a6" stroke-width="1"   opacity="0.5"/>
    <line x1="14" y1="200" x2="40" y2="200" stroke="#14b8a6" stroke-width="1"   opacity="0.5"/>
    <line x1="14" y1="207" x2="44" y2="207" stroke="#14b8a6" stroke-width="1"   opacity="0.4"/>
    <!-- Collar -->
    <path d="M 78 72 L 94 105 L 110 72" stroke="#0f766e" stroke-width="3" fill="none"/>
    <!-- Head -->
    <ellipse cx="94" cy="44" rx="34" ry="38" fill="#0d9488"/>
    <!-- Surgical cap -->
    <ellipse cx="94" cy="22" rx="38" ry="15" fill="#0f766e"/>
    <rect x="56" y="18" width="76" height="12" rx="6" fill="#0f766e"/>
    <!-- Mask -->
    <rect x="68" y="50" width="52" height="26" rx="9" fill="#14b8a6" opacity="0.8"/>
    <!-- Eyes -->
    <ellipse cx="82"  cy="44" rx="7" ry="6" fill="#042f2e"/>
    <ellipse cx="106" cy="44" rx="7" ry="6" fill="#042f2e"/>
    <ellipse cx="82"  cy="44" rx="3" ry="3" fill="#0d9488" opacity="0.5"/>
    <ellipse cx="106" cy="44" rx="3" ry="3" fill="#0d9488" opacity="0.5"/>
  </g>

  <!-- ── PATIENT FIGURE (seated, right) ── -->
  <g transform="translate(530, 148)">
    <!-- Exam table -->
    <rect x="10" y="178" width="140" height="12" rx="4" fill="#e7e5e4"/>
    <!-- Seated legs -->
    <path d="M 38 176 L 38 210 Q 38 224 52 224 L 80 224" stroke="#d6d3d1" stroke-width="24" stroke-linecap="round" fill="none"/>
    <path d="M 102 176 L 102 210 Q 102 224 88 224 L 60 224" stroke="#d6d3d1" stroke-width="24" stroke-linecap="round" fill="none"/>
    <!-- Body dress -->
    <path d="M 30 65 Q 20 80 18 135 L 18 182 L 142 182 L 142 135 Q 140 80 130 65 Q 110 56 80 56 Q 50 56 30 65 Z" fill="#d6d3d1"/>
    <!-- Dress dots pattern -->
    <circle cx="55" cy="92"  r="3" fill="#a8a29e" opacity="0.6"/>
    <circle cx="72" cy="86"  r="3" fill="#a8a29e" opacity="0.6"/>
    <circle cx="90" cy="92"  r="3" fill="#a8a29e" opacity="0.6"/>
    <circle cx="108" cy="86" r="3" fill="#a8a29e" opacity="0.6"/>
    <circle cx="62" cy="110" r="3" fill="#a8a29e" opacity="0.6"/>
    <circle cx="80" cy="104" r="3" fill="#a8a29e" opacity="0.6"/>
    <circle cx="98" cy="110" r="3" fill="#a8a29e" opacity="0.6"/>
    <circle cx="116" cy="104" r="3" fill="#a8a29e" opacity="0.6"/>
    <circle cx="58" cy="128" r="3" fill="#a8a29e" opacity="0.6"/>
    <circle cx="76" cy="122" r="3" fill="#a8a29e" opacity="0.6"/>
    <circle cx="95" cy="128" r="3" fill="#a8a29e" opacity="0.6"/>
    <circle cx="112" cy="122" r="3" fill="#a8a29e" opacity="0.6"/>
    <circle cx="66" cy="148" r="3" fill="#a8a29e" opacity="0.6"/>
    <circle cx="84" cy="142" r="3" fill="#a8a29e" opacity="0.6"/>
    <circle cx="102" cy="148" r="3" fill="#a8a29e" opacity="0.6"/>
    <!-- Arms -->
    <path d="M 30 74 Q 12 104 16 138" stroke="#d6d3d1" stroke-width="18" stroke-linecap="round" fill="none"/>
    <path d="M 130 74 Q 148 104 144 138" stroke="#d6d3d1" stroke-width="18" stroke-linecap="round" fill="none"/>
    <ellipse cx="18"  cy="144" rx="14" ry="9" fill="#78716c"/>
    <ellipse cx="142" cy="144" rx="14" ry="9" fill="#78716c"/>
    <!-- Neck -->
    <rect x="68" y="44" width="24" height="18" rx="6" fill="#78716c"/>
    <!-- Head -->
    <ellipse cx="80" cy="30" rx="30" ry="34" fill="#78716c"/>
    <!-- Hair -->
    <ellipse cx="80" cy="10" rx="32" ry="18" fill="#292524"/>
    <path d="M 50 18 Q 40 50 46 72" stroke="#292524" stroke-width="12" stroke-linecap="round" fill="none"/>
    <path d="M 110 18 Q 120 50 114 72" stroke="#292524" stroke-width="10" stroke-linecap="round" fill="none"/>
    <!-- Face -->
    <ellipse cx="68"  cy="32" rx="5" ry="5" fill="#44403c"/>
    <ellipse cx="92"  cy="32" rx="5" ry="5" fill="#44403c"/>
    <path d="M 70 44 Q 80 50 90 44" stroke="#44403c" stroke-width="1.5" fill="none"/>
  </g>

  <!-- ── DATA TAGS ── -->
  <rect x="268" y="70"  width="88" height="20" rx="4" fill="rgba(20,184,166,0.12)" stroke="rgba(20,184,166,0.5)" stroke-width="1"/>
  <text x="274" y="84" font-family="Courier New" font-size="10" font-weight="bold" fill="#0d9488">HR: 72 bpm ↑</text>

  <rect x="418" y="118" width="100" height="20" rx="4" fill="rgba(20,184,166,0.12)" stroke="rgba(20,184,166,0.5)" stroke-width="1"/>
  <text x="424" y="132" font-family="Courier New" font-size="10" font-weight="bold" fill="#0d9488">AI: 94.2% conf.</text>

  <rect x="308" y="308" width="112" height="20" rx="4" fill="rgba(20,184,166,0.12)" stroke="rgba(20,184,166,0.5)" stroke-width="1"/>
  <text x="314" y="322" font-family="Courier New" font-size="10" font-weight="bold" fill="#0d9488">Vision Model v2.1</text>

</svg>
